<svg xmlns="http://www.w3.org/2000/svg" viewBox="0 0 64 64" width="64" height="64" role="img" aria-label="Laudos.AI">
  <rect width="64" height="64" rx="14" fill="#0a0a0a"/>
  <g transform="translate(7.9 6.2) scale(0.0607)"><path fill="#c9b988" fill-rule="evenodd" d="M 272 263 L 272 266 L 268 267 L 268 271 L 264 272 L 263 276 L 259 276 L 259 279 L 255 280 L 254 284 L 251 284 L 251 291 L 255 292 L 255 296 L 251 297 L 251 533 L 254 533 L 255 537 L 251 538 L 251 541 L 255 542 L 255 558 L 258 558 L 259 562 L 264 563 L 264 571 L 267 571 L 268 575 L 271 575 L 272 579 L 275 579 L 276 583 L 280 584 L 280 587 L 288 587 L 289 591 L 300 591 L 301 596 L 538 596 L 539 591 L 546 591 L 546 588 L 550 587 L 550 580 L 554 579 L 554 547 L 550 546 L 550 538 L 547 538 L 546 534 L 539 534 L 538 530 L 522 530 L 521 526 L 389 526 L 388 522 L 376 522 L 375 517 L 368 517 L 367 513 L 363 512 L 363 509 L 358 508 L 358 497 L 354 496 L 354 484 L 350 483 L 350 284 L 346 283 L 346 276 L 343 276 L 342 272 L 338 271 L 338 267 L 334 267 L 333 263 L 326 263 L 325 259 L 280 259 L 279 263 Z M 205 180 L 205 183 L 201 184 L 201 187 L 197 188 L 196 192 L 193 192 L 193 196 L 189 197 L 188 201 L 184 201 L 183 205 L 176 205 L 176 208 L 172 209 L 172 216 L 168 217 L 167 222 L 164 222 L 164 229 L 159 230 L 159 233 L 155 234 L 155 246 L 151 247 L 151 254 L 147 255 L 147 262 L 143 263 L 143 271 L 139 272 L 139 300 L 134 301 L 134 546 L 139 547 L 139 575 L 143 576 L 143 587 L 147 588 L 147 596 L 151 597 L 151 604 L 155 605 L 155 612 L 158 612 L 159 616 L 164 617 L 164 625 L 168 626 L 168 633 L 175 633 L 176 637 L 180 638 L 180 646 L 188 646 L 189 650 L 193 651 L 193 654 L 200 654 L 201 662 L 204 662 L 205 666 L 213 666 L 214 671 L 221 671 L 222 675 L 233 675 L 234 679 L 242 679 L 243 683 L 258 683 L 259 687 L 296 687 L 297 691 L 304 691 L 305 687 L 329 687 L 330 691 L 358 691 L 359 687 L 363 687 L 363 659 L 358 658 L 358 647 L 363 646 L 363 642 L 293 642 L 292 638 L 276 638 L 275 634 L 264 634 L 263 630 L 255 630 L 254 626 L 243 626 L 242 622 L 238 621 L 238 617 L 230 617 L 229 613 L 226 613 L 225 609 L 222 609 L 221 605 L 218 605 L 217 601 L 214 601 L 213 597 L 209 597 L 208 592 L 205 592 L 204 588 L 200 587 L 200 580 L 196 579 L 196 572 L 192 571 L 192 563 L 188 562 L 188 551 L 183 550 L 183 534 L 179 533 L 179 301 L 183 300 L 183 288 L 188 287 L 188 276 L 192 275 L 192 267 L 196 266 L 196 259 L 200 258 L 200 251 L 204 250 L 204 242 L 208 241 L 209 237 L 213 237 L 213 234 L 217 233 L 217 230 L 221 229 L 221 226 L 225 225 L 226 221 L 233 221 L 233 217 L 238 216 L 239 212 L 246 212 L 247 208 L 258 208 L 259 204 L 267 204 L 268 200 L 288 200 L 289 196 L 296 196 L 297 200 L 479 200 L 480 196 L 492 196 L 493 200 L 500 200 L 500 197 L 504 196 L 505 200 L 529 200 L 530 204 L 538 204 L 539 208 L 546 208 L 547 212 L 554 212 L 555 216 L 563 216 L 564 221 L 567 221 L 568 225 L 571 225 L 572 229 L 575 229 L 576 233 L 579 233 L 580 237 L 583 237 L 584 241 L 588 241 L 589 246 L 592 246 L 593 250 L 597 251 L 597 258 L 601 259 L 601 271 L 605 272 L 605 279 L 609 280 L 609 296 L 614 297 L 614 308 L 609 309 L 609 312 L 614 313 L 614 516 L 609 517 L 609 521 L 614 522 L 614 541 L 609 542 L 609 554 L 605 555 L 605 562 L 601 563 L 601 575 L 597 576 L 597 583 L 593 584 L 593 591 L 589 592 L 589 596 L 584 597 L 584 600 L 580 601 L 580 604 L 576 605 L 576 608 L 572 609 L 572 612 L 568 613 L 567 617 L 564 617 L 563 622 L 555 622 L 554 626 L 547 626 L 546 630 L 534 630 L 533 634 L 522 634 L 521 638 L 489 638 L 488 642 L 434 642 L 434 646 L 430 647 L 430 654 L 434 655 L 434 658 L 430 659 L 430 666 L 434 667 L 434 683 L 430 684 L 430 687 L 467 687 L 468 691 L 471 691 L 472 687 L 475 687 L 476 691 L 483 691 L 484 687 L 542 687 L 543 683 L 554 683 L 554 680 L 558 679 L 559 675 L 571 675 L 572 671 L 579 671 L 580 666 L 588 666 L 589 658 L 596 658 L 597 654 L 604 654 L 604 651 L 608 650 L 608 642 L 613 641 L 613 638 L 617 637 L 617 634 L 621 633 L 621 630 L 625 629 L 625 626 L 629 625 L 630 621 L 633 621 L 633 613 L 638 612 L 638 605 L 642 604 L 642 592 L 646 591 L 647 587 L 650 587 L 650 572 L 654 571 L 654 542 L 658 541 L 658 301 L 654 300 L 654 272 L 650 271 L 650 255 L 647 255 L 646 251 L 642 250 L 642 238 L 638 237 L 638 230 L 634 230 L 633 226 L 630 226 L 629 222 L 625 221 L 625 213 L 622 213 L 621 209 L 618 209 L 617 205 L 613 204 L 613 201 L 609 201 L 608 197 L 604 196 L 604 192 L 600 191 L 600 188 L 593 188 L 592 184 L 588 183 L 588 180 L 583 179 L 583 176 L 576 176 L 575 172 L 568 172 L 567 167 L 559 167 L 558 163 L 551 163 L 550 159 L 534 159 L 533 155 L 439 155 L 438 151 L 409 151 L 408 155 L 384 155 L 383 151 L 368 151 L 367 155 L 255 155 L 254 159 L 243 159 L 243 162 L 239 163 L 238 167 L 230 167 L 229 172 L 218 172 L 218 175 L 214 176 L 213 180 Z M 147 63 L 147 66 L 143 67 L 142 72 L 134 72 L 134 75 L 130 76 L 130 79 L 126 80 L 126 83 L 122 84 L 121 88 L 114 88 L 113 92 L 109 92 L 109 96 L 105 97 L 105 100 L 101 101 L 101 104 L 97 105 L 97 108 L 93 109 L 92 113 L 89 113 L 89 121 L 80 122 L 80 125 L 76 126 L 76 133 L 72 134 L 71 138 L 68 138 L 68 146 L 64 147 L 63 151 L 59 151 L 59 158 L 55 159 L 55 171 L 51 172 L 50 176 L 47 176 L 47 187 L 43 188 L 43 200 L 39 201 L 39 221 L 34 222 L 34 237 L 30 238 L 30 621 L 34 622 L 34 633 L 39 634 L 39 662 L 43 663 L 43 671 L 47 672 L 47 679 L 51 680 L 51 691 L 55 692 L 55 700 L 59 701 L 59 708 L 63 708 L 64 712 L 67 712 L 68 716 L 72 717 L 72 725 L 75 725 L 76 729 L 79 729 L 80 733 L 84 734 L 84 737 L 89 738 L 89 746 L 92 746 L 93 750 L 96 750 L 97 754 L 101 755 L 101 758 L 108 758 L 109 762 L 113 762 L 114 766 L 118 767 L 118 771 L 121 771 L 122 775 L 126 776 L 126 779 L 133 779 L 134 783 L 139 784 L 139 787 L 146 787 L 147 791 L 154 791 L 155 796 L 158 796 L 159 800 L 167 800 L 168 804 L 179 804 L 180 808 L 192 808 L 193 812 L 204 812 L 205 816 L 225 816 L 226 821 L 363 821 L 363 726 L 359 726 L 358 722 L 268 722 L 267 717 L 247 717 L 246 713 L 222 713 L 221 709 L 214 709 L 213 705 L 201 705 L 200 701 L 196 700 L 196 697 L 184 697 L 183 692 L 180 692 L 179 688 L 172 688 L 171 684 L 167 683 L 167 680 L 159 680 L 158 676 L 155 676 L 154 672 L 150 671 L 150 667 L 147 667 L 146 663 L 143 663 L 142 659 L 138 658 L 138 655 L 134 655 L 133 651 L 129 650 L 129 642 L 126 642 L 125 638 L 122 638 L 121 634 L 117 633 L 117 626 L 114 626 L 113 622 L 108 621 L 108 613 L 104 612 L 104 605 L 100 604 L 100 592 L 96 591 L 96 580 L 93 580 L 92 576 L 88 575 L 88 555 L 83 554 L 83 505 L 79 504 L 79 501 L 83 500 L 83 284 L 79 283 L 79 280 L 83 279 L 83 238 L 88 237 L 88 222 L 92 221 L 92 209 L 96 208 L 96 197 L 100 196 L 100 188 L 104 187 L 104 180 L 108 179 L 109 175 L 113 175 L 113 167 L 117 166 L 117 159 L 121 158 L 121 155 L 125 154 L 125 151 L 129 150 L 130 146 L 133 146 L 133 142 L 138 141 L 138 138 L 142 137 L 142 134 L 146 133 L 146 130 L 150 129 L 150 126 L 154 125 L 155 121 L 158 121 L 159 116 L 167 116 L 167 113 L 171 112 L 171 109 L 175 108 L 176 104 L 183 104 L 184 100 L 196 100 L 196 97 L 200 96 L 201 91 L 213 91 L 213 88 L 217 87 L 218 83 L 246 83 L 247 79 L 550 79 L 551 83 L 575 83 L 576 87 L 583 87 L 584 91 L 592 91 L 593 96 L 600 96 L 601 100 L 608 100 L 609 104 L 617 104 L 618 108 L 625 108 L 626 112 L 629 112 L 630 116 L 634 117 L 634 121 L 642 121 L 643 125 L 647 126 L 647 129 L 654 129 L 655 133 L 659 134 L 659 141 L 663 141 L 664 146 L 667 146 L 668 150 L 671 150 L 672 154 L 675 154 L 676 158 L 680 159 L 680 171 L 683 171 L 684 175 L 689 176 L 689 183 L 693 184 L 693 196 L 697 197 L 697 204 L 701 205 L 701 216 L 705 217 L 705 225 L 709 226 L 709 250 L 714 251 L 713 255 L 709 255 L 709 258 L 714 259 L 714 321 L 709 322 L 709 346 L 714 347 L 714 358 L 709 359 L 709 375 L 714 376 L 714 383 L 709 384 L 709 483 L 714 484 L 713 488 L 709 488 L 709 525 L 714 526 L 714 537 L 709 538 L 709 575 L 705 576 L 705 583 L 701 584 L 701 591 L 697 592 L 697 604 L 693 605 L 693 612 L 689 613 L 689 625 L 684 626 L 684 629 L 680 630 L 680 637 L 676 638 L 676 646 L 672 647 L 672 650 L 668 651 L 668 654 L 664 655 L 663 659 L 659 659 L 659 662 L 655 663 L 654 667 L 651 667 L 651 671 L 647 672 L 647 675 L 643 676 L 643 679 L 639 680 L 638 684 L 634 684 L 634 687 L 630 688 L 629 692 L 626 692 L 625 697 L 614 697 L 614 700 L 609 701 L 609 704 L 605 705 L 604 709 L 597 709 L 596 713 L 576 713 L 575 717 L 568 717 L 567 722 L 547 722 L 546 726 L 430 726 L 430 729 L 434 730 L 434 741 L 430 742 L 430 754 L 434 755 L 434 771 L 430 772 L 430 800 L 434 801 L 434 816 L 430 817 L 430 821 L 563 821 L 564 816 L 567 816 L 568 821 L 571 821 L 572 816 L 588 816 L 589 812 L 600 812 L 601 808 L 613 808 L 614 804 L 629 804 L 629 801 L 633 800 L 634 796 L 642 796 L 643 791 L 650 791 L 651 787 L 658 787 L 658 784 L 663 783 L 663 780 L 667 779 L 667 776 L 671 775 L 672 771 L 679 771 L 679 767 L 683 766 L 684 762 L 688 762 L 688 759 L 692 758 L 692 755 L 696 754 L 697 750 L 704 750 L 704 738 L 713 737 L 713 734 L 717 733 L 717 726 L 721 725 L 722 721 L 725 721 L 725 713 L 729 712 L 730 708 L 733 708 L 733 697 L 738 696 L 738 688 L 742 687 L 742 680 L 746 679 L 746 672 L 750 671 L 750 659 L 754 658 L 754 630 L 758 629 L 758 622 L 763 621 L 763 247 L 758 246 L 758 242 L 763 241 L 763 234 L 759 234 L 758 226 L 754 225 L 754 205 L 750 204 L 750 188 L 746 187 L 746 180 L 742 179 L 742 172 L 738 171 L 738 159 L 734 159 L 733 155 L 729 154 L 729 147 L 725 146 L 725 138 L 721 137 L 721 130 L 714 130 L 713 126 L 709 126 L 708 117 L 705 117 L 704 113 L 701 113 L 700 109 L 696 108 L 696 101 L 689 101 L 688 97 L 684 97 L 683 92 L 679 91 L 679 88 L 672 88 L 671 84 L 668 84 L 667 80 L 663 79 L 663 76 L 659 76 L 658 72 L 654 71 L 654 67 L 647 67 L 646 63 L 639 63 L 638 59 L 630 59 L 629 55 L 622 55 L 621 51 L 614 51 L 613 47 L 605 47 L 604 42 L 589 42 L 588 38 L 572 38 L 571 34 L 547 34 L 546 30 L 255 30 L 254 34 L 251 34 L 250 30 L 247 30 L 246 34 L 226 34 L 225 38 L 209 38 L 208 42 L 193 42 L 192 47 L 180 47 L 179 51 L 172 51 L 171 55 L 164 55 L 163 59 L 155 59 L 154 63 Z"/></g>
</svg>
