<svg width="71" height="20" viewBox="0 0 71 20" fill="none" xmlns="http://www.w3.org/2000/svg">
<path d="M8.8444 10.1172V12.0101C7.55319 11.0085 6.1237 10.874 4.65497 11.2178C4.07383 11.3524 3.53941 11.7261 3.01059 12.0344C2.69666 12.2175 2.75272 12.4698 3.0162 12.7108C3.71132 13.3443 4.56341 13.5554 5.46034 13.6208C6.77958 13.718 7.56066 13.5087 8.83693 12.7501V18.9726H0.00585938V10.1172H8.8444Z" fill="white"/>
<path d="M9.8125 18.9709V12.7895C11.924 13.9592 13.9664 14.0489 15.9416 12.4999C15.3399 11.0592 11.7745 10.3977 9.82558 12.0084V10.1211H18.6566V18.9709H9.8125Z" fill="white"/>
<path d="M0 0.246094H8.70961C8.46482 0.875814 8.13221 1.49432 7.99019 2.15207C7.70803 3.46384 7.88742 4.72329 8.73764 5.82576C8.79183 5.89676 8.85723 5.98646 8.8591 6.06866C8.86844 6.91706 8.8647 7.76536 8.82546 8.62496C8.34149 7.35986 7.54546 6.35276 6.46167 5.57536C5.80765 5.10636 5.09571 4.76626 4.27726 4.71394C3.79329 4.68218 3.69051 4.78121 3.7391 5.27266C3.88298 6.70586 4.6678 7.78216 5.69927 8.71276C5.84315 8.84166 5.99077 8.96876 6.2094 9.16126H0V0.246094Z" fill="white"/>
<path d="M12.4224 9.15766C13.4483 8.35786 14.2237 7.51516 14.6386 6.40706C14.7881 6.00716 14.8423 5.56806 14.9151 5.14206C14.9693 4.82436 14.7937 4.63376 14.4891 4.71785C13.8369 4.89724 13.1456 5.02986 12.5682 5.35506C11.2713 6.08756 10.3744 7.20876 9.79513 8.61766C9.79513 7.76186 9.79326 6.90596 9.80074 6.05016C9.80074 5.98286 9.86053 5.90816 9.90911 5.85206C11.0826 4.46932 11.0976 1.8271 9.91846 0.4107C9.8923 0.37893 9.88482 0.32848 9.85493 0.25H18.6449V9.15766H12.4243H12.4224Z" fill="white"/>
<path d="M23.1484 10.9529H25.0469V14.0174H27.4237V10.9323C28.0273 10.9323 28.5804 10.9211 29.1354 10.9454C29.2176 10.9492 29.3596 11.1155 29.3596 11.207C29.3671 13.7596 29.3596 16.3121 29.354 18.8646C29.354 18.8908 29.3279 18.9169 29.298 18.9693H27.4406V15.5534C26.6894 15.5534 25.9662 15.5441 25.2431 15.5684C25.1758 15.5702 25.0618 15.7926 25.0599 15.9141C25.0431 16.7549 25.0506 17.5958 25.0506 18.4348C25.0506 18.603 25.0506 18.7693 25.0506 18.9693H23.1465V10.9529H23.1484Z" fill="white"/>
<path d="M27.5719 5.77415C28.2408 6.89905 28.8874 7.98845 29.5825 9.16195C28.8537 9.16195 28.2072 9.17315 27.5644 9.15075C27.4654 9.14695 27.342 9.00305 27.2822 8.89475C26.8599 8.13235 26.4526 7.36245 26.0396 6.59635C25.849 6.24375 25.5276 6.09175 25.0754 6.14035V9.12645H23.1582V1.03906C24.5821 1.13062 25.9817 1.13996 27.3551 1.3343C28.3006 1.46884 28.9135 2.12286 29.0518 3.13377C29.1901 4.15404 28.9061 4.97623 27.9904 5.52375C27.8708 5.59475 27.7513 5.66575 27.57 5.77415H27.5719ZM25.0735 4.77442C25.7724 4.70528 26.4937 4.97249 26.9552 4.26802C27.1944 3.90177 27.1682 3.17862 26.9029 2.89459C26.3853 2.34148 25.7201 2.51153 25.0735 2.48537V4.77629V4.77442Z" fill="white"/>
<path d="M64.0981 9.13999H62.493C62.4463 8.96809 62.3995 8.79429 62.3379 8.56639C61.8763 9.05219 61.3643 9.36049 60.6972 9.36609C59.7069 9.37359 59.0192 8.97369 58.6418 8.05999C58.1484 6.86409 58.126 5.64009 58.5726 4.4199C59.036 3.15485 60.5104 2.21307 62.2314 3.28192V0.230469C62.8275 0.292129 63.3488 0.333239 63.8664 0.411729C63.9561 0.424809 64.0869 0.591109 64.0869 0.688279C64.0981 3.48559 64.0962 6.28289 64.0962 9.13999H64.0981ZM62.2444 6.03249C62.2444 5.69059 62.293 5.34109 62.2276 5.01229C62.1809 4.76933 62.0408 4.48157 61.8483 4.34142C61.3251 3.96209 60.6898 4.1639 60.43 4.77307C60.0825 5.59149 60.1217 6.44359 60.3403 7.28259C60.4861 7.84319 60.8841 8.08799 61.3699 8.00019C61.8763 7.90859 62.2388 7.47879 62.2426 6.96119C62.2444 6.65099 62.2426 6.34079 62.2426 6.03069L62.2444 6.03249Z" fill="white"/>
<path d="M56.1421 18.9795H54.324C54.3146 18.8132 54.2997 18.6487 54.2978 18.4862C54.2959 17.3033 54.2978 16.1205 54.2978 14.9358C54.2978 14.2313 54.1595 14.0034 53.7372 13.9978C53.2644 13.9903 52.6964 14.521 52.6926 15.005C52.6833 16.156 52.6889 17.309 52.6889 18.4619C52.6889 18.6151 52.6889 18.7683 52.6889 18.9627H50.8633V10.3764C51.4594 10.3166 52.0405 10.2568 52.687 10.1914V13.2634C53.1635 13.0485 53.5765 12.7869 54.0268 12.6748C55.148 12.3964 56.0748 13.0224 56.1272 14.1716C56.2 15.7524 56.1458 17.3389 56.1458 18.9776L56.1421 18.9795Z" fill="white"/>
<path d="M40.0178 15.1834C40.1729 14.2958 39.9244 13.98 39.0985 13.9874C38.82 13.9893 38.5416 14.0304 38.2669 14.0809C38.0091 14.1276 37.7568 14.2098 37.4447 14.2902C37.3102 13.8977 37.1775 13.5109 37.028 13.0793C38.2688 12.6645 39.4666 12.3954 40.7092 12.8345C41.5538 13.1335 41.8902 13.8043 41.9126 14.6489C41.935 15.473 41.8976 16.2989 41.9313 17.1211C41.9425 17.3752 42.1088 17.6219 42.1891 17.876C42.2265 17.9937 42.2639 18.1339 42.2359 18.2479C42.1649 18.5319 42.0565 18.8085 41.9518 19.1224C41.309 19.1542 40.8194 18.9019 40.4532 18.3282C39.8347 19.0757 39.0499 19.2906 38.1436 19.1429C37.3887 19.0196 36.8169 18.502 36.6562 17.7845C36.4544 16.8969 36.7178 16.1251 37.3831 15.6785C37.9605 15.2899 38.6182 15.1946 39.2965 15.1834C39.5413 15.1796 39.788 15.1834 40.0216 15.1834H40.0178ZM40.0776 16.1419C39.6105 16.2223 39.2162 16.2391 38.8649 16.3662C38.4762 16.5063 38.3342 16.9697 38.4781 17.3902C38.6014 17.7527 38.8761 17.8854 39.2405 17.8536C39.6833 17.8144 40.0533 17.5004 40.0757 17.1286C40.0926 16.8389 40.0795 16.5493 40.0795 16.1419H40.0776Z" fill="white"/>
<path d="M35.8617 18.3002C34.4061 19.6382 31.8442 19.4307 30.8725 17.9284C30.1045 16.7399 30.2073 14.6471 31.1229 13.5726C31.9003 12.6608 32.9224 12.4515 34.0473 12.715C35.1928 12.984 35.8001 13.7801 36.0224 14.8919C36.3214 16.3868 36.2635 16.4503 34.7649 16.4503H32.3488C32.2609 17.1604 32.6683 17.7116 33.3279 17.8163C33.8773 17.9022 34.3818 17.7621 34.8359 17.4594C35.0545 17.3155 35.1872 17.3342 35.3255 17.5584C35.4805 17.8069 35.6674 18.0349 35.8599 18.2984L35.8617 18.3002ZM34.2211 15.2974C34.3332 14.4528 33.9857 13.9015 33.3466 13.8698C32.6814 13.838 32.2834 14.3724 32.3058 15.2974H34.223H34.2211Z" fill="white"/>
<path d="M43.5134 7.49929C43.7676 7.84309 44.003 8.16449 44.2385 8.48409C42.723 9.85749 40.049 9.61269 39.1932 7.99449C38.4813 6.64719 38.5317 5.24759 39.352 3.95642C39.9743 2.9754 40.9665 2.69323 42.0821 2.83525C43.2088 2.97913 43.9843 3.59017 44.2814 4.69826C44.4122 5.18599 44.4085 5.70919 44.4646 6.21559C44.5019 6.54449 44.3468 6.63979 44.0273 6.63409C43.0799 6.61729 42.1307 6.62849 41.1814 6.62849C41.0132 6.62849 40.8451 6.62849 40.6769 6.62849C40.6862 8.04119 41.7738 8.37379 43.5134 7.49929ZM42.6389 5.48499C42.6389 4.48523 42.31 4.0405 41.6336 4.05919C40.9983 4.07601 40.6115 4.64967 40.6844 5.48499H42.6389Z" fill="white"/>
<path d="M66.992 6.63151C66.9602 8.02361 67.9749 8.33571 69.8136 7.51541C70.0453 7.82551 70.2845 8.14511 70.5984 8.56551C70.0995 8.80281 69.6679 9.08691 69.1932 9.21951C66.409 9.98941 64.4357 7.92271 65.1701 5.02821C65.6746 3.0363 67.7637 2.16179 69.5053 3.2269C70.4396 3.7987 70.6956 4.73114 70.7741 5.74391C70.7834 5.86721 70.7666 5.99431 70.7778 6.11761C70.8133 6.51001 70.6694 6.65581 70.249 6.64461C69.1633 6.61281 68.0758 6.63341 66.992 6.63341V6.63151ZM68.9129 5.48791C68.9671 4.96097 68.9241 4.44711 68.4533 4.20605C68.186 4.06965 67.7208 4.07525 67.4592 4.221C67.0144 4.46953 66.9416 4.97592 66.9733 5.48791H68.9129Z" fill="white"/>
<path d="M54.432 3.59857C54.2096 3.94053 53.9984 4.26006 53.8415 4.49924C53.2398 4.36844 52.7223 4.22829 52.1935 4.15168C51.9169 4.11244 51.6047 4.18158 51.5337 4.52914C51.4609 4.89352 51.7561 5.01307 52.0177 5.11027C52.44 5.26727 52.8754 5.38497 53.2977 5.54197C54.2582 5.90067 54.6992 6.49497 54.6786 7.36947C54.6581 8.19537 54.1274 8.88297 53.2248 9.16327C52.0588 9.52767 50.9209 9.43607 49.8483 8.82317C49.6783 8.72607 49.5288 8.58967 49.3438 8.45137C49.6502 8.10567 49.9268 7.79357 50.2127 7.47217C50.5285 7.62357 50.8181 7.81977 51.1376 7.90007C51.4908 7.98977 51.8777 8.03097 52.2346 7.98237C52.4252 7.95617 52.711 7.70207 52.7203 7.53757C52.7315 7.34137 52.5409 7.04987 52.3541 6.94157C52.0532 6.76587 51.6871 6.69677 51.3451 6.59397C50.2146 6.25387 49.639 5.58867 49.6577 4.64686C49.6689 4.05078 49.9511 3.60605 50.4239 3.27904C51.5077 2.52972 53.3893 2.668 54.4301 3.59483L54.432 3.59857Z" fill="white"/>
<path d="M32.6602 2.99783C33.2525 2.99783 33.8112 2.97727 34.3662 3.01465C34.4783 3.02212 34.6372 3.2314 34.6708 3.37342C34.9698 4.59549 35.2463 5.82318 35.5304 7.04898C35.564 7.19478 35.607 7.33858 35.7359 7.48068C35.9826 6.46038 36.2292 5.44198 36.474 4.42171C36.5319 4.18066 36.5917 3.93961 36.6478 3.69669C36.7537 3.22954 37.0514 2.99596 37.541 2.99596C37.868 2.99596 38.1931 3.00157 38.5201 3.0053C38.5482 3.0053 38.5781 3.02586 38.6509 3.05389C38.6229 3.17722 38.6042 3.30989 38.565 3.43695C38.0025 5.23078 37.4345 7.02278 36.8776 8.81668C36.8029 9.05588 36.7057 9.17918 36.4292 9.16798C35.9172 9.14558 35.4033 9.17738 34.8913 9.15118C34.7586 9.14368 34.5493 9.03528 34.5138 8.92698C33.8841 7.02468 33.2749 5.11688 32.662 3.20898C32.649 3.16787 32.662 3.12116 32.662 2.99596L32.6602 2.99783Z" fill="white"/>
<path d="M49.6557 14.1084H48.4318C48.4318 14.6671 48.4318 15.1885 48.4318 15.7099C48.4318 16.1303 48.4206 16.5507 48.4355 16.9692C48.4617 17.6606 48.7476 17.8532 49.4109 17.642C49.4838 17.6196 49.553 17.5877 49.6744 17.5429C49.88 17.9259 50.0799 18.3016 50.2929 18.7015C49.4278 19.221 48.557 19.3554 47.6619 19.0135C46.8566 18.7052 46.6174 17.9896 46.5912 17.2048C46.5632 16.3658 46.5837 15.5249 46.5837 14.6859C46.5837 14.5177 46.5837 14.3476 46.5837 14.1308C46.296 14.1177 46.04 14.1047 45.7559 14.0917V12.8528C46.0231 12.8322 46.2791 12.8117 46.5725 12.7892V11.511C47.1948 11.4344 47.7853 11.3597 48.4337 11.2812V12.8097H49.8351C49.7735 13.2638 49.7193 13.6544 49.6557 14.1103V14.1084Z" fill="white"/>
<path d="M45.9394 18.9248C44.7603 19.5097 43.1122 19.1883 43.1271 17.4225C43.1477 15.1969 43.1309 12.9714 43.1327 10.7459C43.1327 10.6394 43.1477 10.5329 43.157 10.3797C43.7456 10.3143 44.3249 10.2507 44.9733 10.1797C44.9733 10.4058 44.9733 10.5889 44.9733 10.7702C44.9733 12.8705 44.9789 14.9727 44.9696 17.073C44.9696 17.5084 45.0312 17.8373 45.603 17.7084C45.7208 18.1344 45.831 18.5343 45.9394 18.9248Z" fill="white"/>
<path d="M45.4041 2.99776C45.8713 2.99776 46.3029 2.98094 46.7327 3.01084C46.8374 3.01831 46.9831 3.16219 47.0205 3.27244C47.0915 3.48173 47.0971 3.71157 47.1382 3.98438C47.9567 2.86508 48.3659 2.67075 49.3394 2.93983C49.2516 3.4892 49.1638 4.04605 49.0741 4.60103C49.0106 4.62532 48.9638 4.66269 48.9283 4.65522C47.9043 4.40295 47.3288 5.04953 47.2466 6.28463C47.1943 7.07323 47.2372 7.86923 47.2354 8.66153C47.2354 8.81293 47.2223 8.96423 47.2148 9.13803H45.4023V2.99776H45.4041Z" fill="white"/>
<path d="M55.5059 3.02734H57.2905V9.12459H55.5059V3.02734Z" fill="white"/>
<path d="M32.001 9.13701H30.1922C30.1847 8.95941 30.1716 8.80621 30.1716 8.65491C30.1716 6.94321 30.1866 5.23341 30.1604 3.52179C30.1529 3.0752 30.3024 2.95747 30.7172 2.98924C31.1321 3.02101 31.5506 2.99671 32.0029 2.99671V9.13701H32.001Z" fill="white"/>
<path d="M56.3848 2.12097C55.7701 2.1191 55.3141 1.6781 55.3067 1.07641C55.2992 0.450431 55.7663 -0.00738966 56.3998 9.03393e-05C57.0164 0.00756034 57.4761 0.45229 57.4836 1.04651C57.4911 1.65942 57.0164 2.12283 56.383 2.12097H56.3848Z" fill="white"/>
<path d="M31.0955 2.12274C30.4882 2.12274 30.0192 1.67615 30.0061 1.0838C29.993 0.47276 30.4714 0 31.0993 0C31.7103 0 32.1775 0.4466 32.1905 1.04082C32.2036 1.64999 31.7271 2.12088 31.0955 2.12274Z" fill="white"/>
</svg>
