<svg width="108" height="22" viewBox="0 0 108 22" fill="none" xmlns="http://www.w3.org/2000/svg">
<path d="M17.377 0C21.5887 0.00021 21.5996 4.20075 21.5996 4.22266V17.377C21.5994 21.5786 17.4189 21.5995 17.377 21.5996H4.22266C0.0187125 21.5994 8.30831e-05 17.4142 0 17.377V4.22266C5.69447e-05 0.0228801 4.17741 0.00012 4.22266 0H17.377ZM8.14258 12.6357C8.10623 12.6361 8.07153 12.651 8.0459 12.6768C8.02052 12.7025 8.00598 12.7373 8.00586 12.7734V16.9229C8.00598 17.6822 8.30688 18.4113 8.84375 18.9482C9.38074 19.4852 10.1098 19.787 10.8691 19.7871C11.6285 19.7871 12.3575 19.4851 12.8945 18.9482C13.4315 18.4113 13.7333 17.6822 13.7334 16.9229V12.7734C13.7333 12.7373 13.7187 12.7025 13.6934 12.6768C13.6677 12.6509 13.6322 12.636 13.5957 12.6357H8.14258ZM4.38086 8.8848V10.7666H7.18164C7.40027 10.7667 7.61015 10.8541 7.76465 11.0088C7.91906 11.1635 8.00599 11.3732 8.00586 11.5918V11.8975H13.7334V11.5918C13.7334 11.4837 13.7547 11.3762 13.7959 11.2764C13.8372 11.1766 13.8983 11.0853 13.9746 11.0088C14.051 10.9324 14.1424 10.8715 14.2422 10.8301C14.3422 10.7887 14.4503 10.7666 14.5586 10.7666H17.2383V8.8848H4.38086ZM10.8906 2.03418C10.0595 2.03407 9.26168 2.36361 8.67383 2.95117C8.08612 3.53879 7.75607 4.33688 7.75586 5.16797C7.75594 5.78749 7.9391 6.394 8.2832 6.9092C8.62744 7.4244 9.11705 7.8262 9.68945 8.0635C10.2619 8.3007 10.8922 8.3628 11.5 8.2422C12.1078 8.1214 12.6671 7.8228 13.1055 7.3848C13.5437 6.9467 13.8417 6.3879 13.9629 5.78027C14.0839 5.17255 14.022 4.54231 13.7852 3.96973C13.5481 3.39711 13.147 2.90699 12.6318 2.5625C12.1166 2.21803 11.5104 2.03439 10.8906 2.03418Z" fill="white"/>
<path d="M29.6279 11.7228L28.2568 6.7169H28.1167L26.7328 11.7228H29.6279ZM27.4312 6H28.9803L31.7996 15.6H30.733L29.9074 12.6129H26.4912L25.679 15.6H24.5996L27.4312 6Z" fill="white"/>
<path d="M33 6H33.9783V12.2011L37.0868 8.6558H38.1587L35.9078 11.1786L38.4 15.6H37.3281L35.2509 11.9223L33.9783 13.3164V15.6H33V6Z" fill="white"/>
<path d="M39 8.48091H39.9176V10.1004C40.351 8.95741 40.9337 8.39901 41.7893 8.39901C41.8597 8.39671 41.9303 8.40131 42 8.41271V9.39251H41.8884C41.0084 9.39251 40.314 10.1685 39.9176 11.6379V15.5984H39V8.48091Z" fill="white"/>
<path d="M45.2996 14.7869C46.4268 14.7869 47.0704 13.8287 47.0704 12.0051C47.0704 10.1688 46.4388 9.22334 45.2996 9.22334C44.1604 9.22334 43.5163 10.1688 43.5163 11.9917C43.5163 13.8287 44.1604 14.7869 45.2996 14.7869ZM45.2996 8.39844C46.9839 8.39844 47.9996 9.67594 47.9996 11.9917C47.9996 14.3075 46.9839 15.5984 45.2996 15.5984C43.6153 15.5984 42.5996 14.3075 42.5996 11.9917C42.5996 9.67594 43.6153 8.39844 45.2996 8.39844Z" fill="white"/>
<path d="M49.1992 8.52034H50.0545V9.58924C50.321 9.23504 50.656 8.94554 51.037 8.74014C51.4179 8.53474 51.8359 8.41824 52.2629 8.39844C53.361 8.39844 53.9992 9.10234 53.9992 10.3609V15.5984H53.093V10.7265C53.093 9.71104 52.812 9.25094 52.0207 9.25094C51.6497 9.27354 51.2877 9.38084 50.9593 9.56544C50.631 9.75004 50.3442 10.0075 50.1184 10.3204V15.5984H49.1993L49.1992 8.52034Z" fill="white"/>
<path d="M61.9544 15.6C59.5772 15.6 58.1992 13.8904 58.1992 10.7932C58.1992 7.7343 59.6578 6 61.8731 6C63.6836 6 64.8182 6.9377 65.2372 8.776L64.2236 9.0199C63.927 7.6186 63.1163 6.874 61.968 6.874C60.2928 6.874 59.2928 8.2487 59.2928 10.8322C59.2928 13.3513 60.3065 14.713 61.9947 14.713C63.2647 14.713 64.1429 13.9164 64.4129 12.4514L65.3992 12.6569C64.9262 14.6233 63.778 15.6 61.9544 15.6Z" fill="white"/>
<path d="M66.5996 6.60156H67.4835V10.0494C67.7477 9.72216 68.0788 9.45706 68.454 9.27226C68.8291 9.08746 69.2394 8.98756 69.6563 8.97926C69.8936 8.95626 70.133 8.98746 70.3567 9.07086C70.5805 9.15416 70.7829 9.28736 70.9491 9.46066C71.1153 9.63396 71.2409 9.84286 71.3168 10.072C71.3927 10.3011 71.4168 10.5446 71.3875 10.7845V15.6016H70.516V11.1202C70.516 10.1867 70.2334 9.76346 69.4234 9.76346C69.05 9.77946 68.6841 9.87526 68.3498 10.0448C68.0155 10.2142 67.7203 10.4534 67.4836 10.7467V15.6016H66.5996V6.60156Z" fill="white"/>
<path d="M73.2825 9.09136H74.3152V15.6016H73.2825V9.09136ZM73.1992 6.60156H74.3992V7.69686H73.1992V6.60156Z" fill="white"/>
<path d="M76.7996 6.60156H75.5996V15.6016H76.7996V6.60156Z" fill="white"/>
<path d="M80.9643 9.69126C79.7929 9.69126 79.0586 10.5651 79.0586 12.19C79.0586 13.9625 79.7221 14.8488 81.0778 14.8488C81.4502 14.8452 81.8146 14.7541 82.1325 14.5851C82.4504 14.4161 82.7102 14.1754 82.8843 13.8884V10.676C82.6914 10.3794 82.4125 10.1324 82.0755 9.95946C81.7385 9.78666 81.3553 9.69416 80.9643 9.69126ZM83.9007 13.4948C83.8845 14.1646 83.9177 14.8347 84 15.5008H83.2093L82.9693 14.6887C82.7456 14.9832 82.438 15.2219 82.0766 15.3815C81.7152 15.5412 81.3125 15.6162 80.9079 15.5993C79.1014 15.5993 78 14.3935 78 12.2517C78 10.1217 79.0871 8.95266 80.9643 8.95266C81.3425 8.92996 81.7207 8.99686 82.0587 9.14646C82.3967 9.29606 82.682 9.52256 82.8843 9.80216V6.60156H83.9008L83.9007 13.4948Z" fill="white"/>
<path d="M85.1992 9.07562H86.3004V10.5603C86.8205 9.51242 87.5197 9.00052 88.5463 9.00052C88.6309 8.99842 88.7155 9.00272 88.7992 9.01312V9.91142H88.6653C87.6093 9.91142 86.7761 10.6228 86.3004 11.9698V15.6H85.1992V9.07562Z" fill="white"/>
<path d="M93.0648 11.7169C93.0387 10.4617 92.3945 9.7552 91.4411 9.7552C90.448 9.7552 89.8298 10.4494 89.7783 11.7169H93.0648ZM94.1988 14.0928C93.9679 14.5745 93.5853 14.977 93.1032 15.2453C92.6211 15.5135 92.0632 15.6345 91.5056 15.5915C89.7652 15.5915 88.7988 14.4584 88.7988 12.2896C88.7988 10.1941 89.8298 9 91.428 9C93.0648 9 94.0567 10.1448 94.0567 12.2039V12.4727H89.7652V12.6792C89.7652 14.0318 90.5131 14.8357 91.5956 14.8357C91.9986 14.8413 92.3947 14.736 92.7356 14.5328C93.0765 14.3295 93.3476 14.0371 93.516 13.6909L94.1988 14.0928Z" fill="white"/>
<path d="M95.3984 9.1117H96.2536V10.0916C96.5202 9.7669 96.8552 9.5015 97.2361 9.3132C97.6171 9.1249 98.0351 9.0181 98.4621 9C99.5608 9 100.198 9.6453 100.198 10.7991V15.6H99.2922V11.1337C99.2922 10.2034 99.0112 9.7815 98.2199 9.7815C97.8489 9.8023 97.4869 9.9005 97.1586 10.0696C96.8303 10.2388 96.5435 10.4747 96.3176 10.7614V15.6H95.3984V9.1117Z" fill="white"/>
<path d="M102.598 7.86886L101.934 9.60156H101.398L101.977 7.82236H101.57V6.60156H102.598V7.86886Z" fill="white"/>
<path d="M103.413 13.8325C103.636 14.1405 103.944 14.3953 104.309 14.5739C104.674 14.7526 105.084 14.8494 105.503 14.8557C106.401 14.8557 106.976 14.4297 106.976 13.7838C106.976 12.9308 106.148 12.8703 104.717 12.4925C103.469 12.1634 102.866 11.5908 102.866 10.7501C102.867 10.5057 102.926 10.2642 103.041 10.041C103.155 9.81771 103.322 9.61781 103.531 9.45381C103.739 9.28981 103.985 9.16551 104.252 9.08881C104.519 9.01201 104.802 8.98461 105.082 9.00821C105.586 8.99601 106.086 9.08531 106.544 9.26931C107.002 9.45321 107.404 9.72671 107.719 10.0683L107.046 10.6527C106.835 10.3795 106.551 10.154 106.219 9.99521C105.888 9.83631 105.517 9.74851 105.138 9.73921C104.381 9.73921 103.904 10.1047 103.904 10.665C103.899 10.7921 103.93 10.9184 103.993 11.0331C104.057 11.1477 104.151 11.2473 104.269 11.3233C104.885 11.5978 105.54 11.7986 106.218 11.9199C107.439 12.2608 108 12.797 108 13.6864C108 14.8193 107.004 15.599 105.377 15.599C104.835 15.6115 104.299 15.508 103.814 15.2976C103.33 15.0872 102.913 14.7765 102.6 14.3928L103.413 13.8325Z" fill="white"/>
</svg>
