<svg width="52" height="17" viewBox="0 0 52 17" fill="none" xmlns="http://www.w3.org/2000/svg">
<path d="M51.6374 0H0.175781V2.04398H51.6374V0Z" fill="white"/>
<path d="M4.57743 9.2497C3.45862 8.8696 2.09239 8.1274 2.16769 6.7539C2.25734 5.0847 4.17939 4.4231 5.51515 5.108C6.85091 5.7929 7.1073 7.3277 7.10371 7.3277H8.06833V5.0811C8.06833 5.0811 6.56762 4.0215 5.23365 3.7812C4.20219 3.582 3.1345 3.7021 2.17307 4.1255C1.57587 4.3836 1.06506 4.8073 0.701048 5.3465C0.345649 5.8924 0.163761 6.533 0.179296 7.1843C0.163723 7.6389 0.242151 8.0919 0.409673 8.5149C0.577195 8.9379 0.830206 9.3217 1.15287 9.6424C1.96003 10.4105 2.94604 10.9651 4.02161 11.2561C4.75493 11.5053 5.65859 11.8298 6.10324 12.5111C6.87601 13.6999 5.92394 15.0607 4.72983 15.4731C3.65406 15.8317 2.43305 15.4408 1.69256 14.6107C1.43922 14.3255 1.23613 13.9993 1.09191 13.6461C1.07578 13.6282 0.925168 13.1566 0.964613 13.1566H0V15.4032C0.595012 15.877 1.26949 16.2412 1.99198 16.479C2.71012 16.6978 3.45738 16.806 4.20808 16.7999C4.97116 16.8166 5.72887 16.6686 6.42956 16.366C7.0252 16.1054 7.53536 15.6822 7.90158 15.145C8.25929 14.598 8.44248 13.9552 8.42692 13.3018C8.44218 12.8468 8.36345 12.3935 8.19563 11.9702C8.0278 11.547 7.7745 11.1628 7.45155 10.8419C6.64095 10.0803 5.65305 9.533 4.57743 9.2497Z" fill="white"/>
<path d="M47.2832 4.05078L41.6605 4.06158V4.91138C42.0085 4.92268 42.3378 5.07148 42.5761 5.32528C42.8145 5.57908 42.9424 5.91708 42.9317 6.26508V14.2725C42.9317 14.8104 42.8026 15.4827 42.306 15.4827C41.6264 15.4827 39.2777 11.7175 38.643 10.6919C39.9608 10.4535 41.2374 9.71658 41.2374 7.43408C41.2374 4.07048 37.7949 4.05078 36.8841 4.05078H31.2649V4.90068C31.6129 4.91188 31.9422 5.06078 32.1805 5.31458C32.4189 5.56838 32.5468 5.90638 32.5361 6.25438V14.2546C32.5361 14.2546 32.5612 14.9466 32.0431 15.3303C31.9848 15.3805 31.9169 15.4183 31.8436 15.4414C31.7703 15.4644 31.693 15.4724 31.6166 15.4647C31.5401 15.4569 31.466 15.4337 31.3987 15.3965C31.3315 15.3592 31.2725 15.3086 31.2255 15.2479C31.0526 15.0196 30.911 14.7694 30.8041 14.5038L26.9457 4.05078H24.9483L21.0809 14.4984C20.9741 14.764 20.8324 15.0142 20.6596 15.2425C20.6125 15.3033 20.5535 15.3538 20.4863 15.3911C20.4191 15.4284 20.345 15.4516 20.2685 15.4593C20.192 15.467 20.1147 15.4591 20.0414 15.436C19.9681 15.4129 19.9002 15.3751 19.842 15.325C19.3238 14.9466 19.3489 14.2492 19.3489 14.2492V6.24898C19.3383 5.90098 19.4662 5.56298 19.7045 5.30918C19.9428 5.05538 20.2721 4.90648 20.6201 4.89528V4.05078H16.0678V4.90068C16.4158 4.91188 16.7451 5.06078 16.9834 5.31458C17.2217 5.56838 17.3496 5.90638 17.339 6.25438V9.50498H11.8902V6.25438C11.8795 5.90638 12.0074 5.56838 12.2458 5.31458C12.4841 5.06078 12.8134 4.91188 13.1614 4.90068V4.05078H8.60547V4.90068C8.95345 4.91188 9.28275 5.06078 9.52109 5.31458C9.75942 5.56838 9.88731 5.90638 9.87668 6.25438V14.2546C9.88538 14.6013 9.75663 14.9375 9.5185 15.1897C9.28037 15.442 8.95217 15.5898 8.60547 15.6011V16.4509H13.1614V15.6011C12.8134 15.5898 12.4841 15.441 12.2458 15.1872C12.0074 14.9334 11.8795 14.5954 11.8902 14.2474V10.8067H17.339V14.2546C17.3477 14.6013 17.2189 14.9375 16.9808 15.1897C16.7427 15.442 16.4145 15.5898 16.0678 15.6011V16.4438H16.0588H24.0913V15.6011C23.3615 15.6011 22.994 14.9951 23.2719 14.2474L24.0249 12.1174H27.8708L28.6239 14.2546C28.9018 15.0022 28.5342 15.6082 27.8045 15.6082V16.4581H36.0378V15.6298C35.6898 15.6185 35.3605 15.4697 35.1222 15.2159C34.8838 14.9621 34.7559 14.6241 34.7666 14.2761V10.8067H36.2834L39.8927 16.4581H46.437V15.6298C46.089 15.6185 45.7597 15.4697 45.5213 15.2159C45.283 14.9621 45.1551 14.6241 45.1658 14.2761V10.8067H47.2922C48.8664 10.8067 51.6455 10.7959 51.6455 7.43408C51.6455 4.07228 48.1941 4.05078 47.2832 4.05078ZM24.4875 10.8067L25.947 6.66668L27.4083 10.8067H24.4875ZM36.859 9.49598H34.7612V5.36148H36.859C37.6066 5.36148 39.102 5.54078 39.102 7.41618C39.102 9.29158 37.6084 9.50498 36.8608 9.50498L36.859 9.49598ZM47.2581 9.49598H45.1604V5.36148H47.2581C48.0058 5.36148 49.5011 5.54078 49.5011 7.41618C49.5011 9.29158 48.0022 9.50498 47.2546 9.50498L47.2581 9.49598Z" fill="white"/>
</svg>
