<svg width="72" height="21" viewBox="0 0 72 21" fill="none" xmlns="http://www.w3.org/2000/svg">
<path d="M24.5312 19.0141V18.8553C24.8489 18.8156 25.0472 18.7759 25.1266 18.6966C25.206 18.6172 25.2458 18.4187 25.2458 18.0614V14.6077C25.2458 14.3299 25.206 14.1314 25.1266 14.052C25.0472 13.9726 24.8488 13.9329 24.5709 13.8932V13.7344H26.7941V13.8932C26.5162 13.9329 26.3177 13.9726 26.2383 14.052C26.1589 14.1314 26.1192 14.3299 26.1192 14.6077V16.1559H28.5408V14.6077C28.5408 14.3299 28.501 14.1314 28.4216 14.052C28.3422 13.9726 28.1438 13.9329 27.8659 13.8932V13.7344H30.089V13.8932C29.8111 13.9329 29.6125 13.9726 29.5331 14.052C29.4537 14.1314 29.4141 14.3299 29.4141 14.6077V18.1408C29.4141 18.4187 29.4537 18.6172 29.5331 18.6966C29.6125 18.7759 29.8111 18.8156 30.089 18.8553V19.0141H27.8659V18.8553C28.1835 18.8156 28.3819 18.7759 28.4613 18.6966C28.5407 18.6172 28.5805 18.4187 28.5805 18.0614V16.5132H26.1588V18.1408C26.1588 18.4187 26.1986 18.6172 26.278 18.6966C26.3574 18.7759 26.5558 18.8156 26.8337 18.8553V19.0141H24.5312Z" fill="white"/>
<path d="M32.3149 15.999C32.3943 16.1181 32.434 16.3166 32.4737 16.5945H30.8461C30.8857 16.396 30.9254 16.1975 31.0445 16.0784C31.2033 15.8005 31.4415 15.6814 31.7194 15.6814C31.9576 15.6417 32.1561 15.7608 32.3149 15.999ZM30.6873 15.9196C30.3697 16.3166 30.2109 16.7533 30.2109 17.2693C30.2109 17.7457 30.33 18.1824 30.6079 18.5396C30.8858 18.8969 31.243 19.0954 31.7194 19.0954C32.1561 19.0954 32.5134 18.9366 32.7912 18.6587C33.0691 18.3808 33.2676 18.0633 33.3867 17.7457L33.2676 17.706C33.1088 17.9839 32.95 18.1824 32.7516 18.3015C32.5531 18.4602 32.3546 18.4999 32.0767 18.4999C31.7591 18.4999 31.4415 18.3808 31.2033 18.103C30.9651 17.8251 30.8064 17.3884 30.8064 16.793H33.2676C33.2676 16.3166 33.1485 15.9593 32.8706 15.7211C32.5928 15.483 32.2752 15.3242 31.9179 15.3242C31.4018 15.3639 31.0048 15.5623 30.6873 15.9196Z" fill="white"/>
<path d="M35.6497 18.457C35.4909 18.5364 35.3321 18.6158 35.1733 18.6158C35.0542 18.6158 34.9351 18.5761 34.816 18.4967C34.6572 18.3776 34.5778 18.2188 34.5778 17.9806C34.5778 17.7027 34.7763 17.4249 35.1336 17.1867C35.3321 17.0676 35.5703 16.9486 35.8878 16.8692V18.0998C35.8878 18.2189 35.8084 18.338 35.6497 18.457ZM34.1411 18.8143C34.2999 18.9731 34.4984 19.0525 34.7366 19.0525C34.9351 19.0525 35.1733 18.9731 35.4115 18.854C35.5703 18.7746 35.7291 18.6555 35.9275 18.457C35.9275 18.6158 35.9672 18.7349 36.0466 18.854C36.126 18.9731 36.2451 19.0128 36.4436 19.0128C36.6024 19.0128 36.7612 18.9731 36.8803 18.854C36.9597 18.7746 37.0788 18.6952 37.1582 18.6158V18.4173C37.0788 18.4967 36.9994 18.5364 36.9597 18.5364C36.92 18.5364 36.8803 18.576 36.8009 18.576C36.6818 18.576 36.6421 18.5364 36.6024 18.4173C36.5627 18.3776 36.5627 18.2586 36.5627 18.0998V16.5515C36.5627 16.1942 36.523 15.9561 36.4039 15.7576C36.2451 15.4401 35.8878 15.2812 35.3718 15.2812C34.9351 15.2812 34.6175 15.4004 34.3793 15.5988C34.1411 15.7973 34.0617 15.9958 34.0617 16.1546C34.0617 16.234 34.1014 16.3133 34.1411 16.3927C34.2205 16.4721 34.2999 16.5119 34.419 16.5119C34.4984 16.5119 34.5778 16.5119 34.6175 16.4722C34.6969 16.4325 34.7763 16.3134 34.7763 16.1546C34.7763 16.1149 34.7763 16.0752 34.7763 15.9958C34.7763 15.9164 34.7763 15.8767 34.7763 15.837C34.7763 15.7179 34.816 15.6385 34.9351 15.5591C35.0542 15.4798 35.1733 15.4401 35.3321 15.4401C35.61 15.4401 35.8084 15.5195 35.8878 15.7179C35.9275 15.837 35.9672 15.9958 35.9672 16.2737V16.5913C35.2527 16.8692 34.7763 17.0676 34.5381 17.2264C34.1808 17.4646 33.9823 17.7822 33.9823 18.1792C33.9029 18.457 33.9823 18.6555 34.1411 18.8143Z" fill="white"/>
<path d="M37.3952 19.0166V18.8975C37.6334 18.8578 37.7922 18.8181 37.8716 18.7387C37.951 18.6594 37.9907 18.5006 37.9907 18.3021V14.5308C37.9907 14.3721 37.9907 14.253 37.951 14.1736C37.9113 14.0545 37.7922 14.0148 37.6334 14.0148C37.5937 14.0148 37.554 14.0148 37.5143 14.0148C37.4746 14.0148 37.4349 14.0148 37.3555 14.0545V13.9354C37.7128 13.856 38.1098 13.7369 38.6258 13.5781C38.6258 13.5781 38.6655 13.5781 38.6655 13.6178C38.6655 13.6178 38.6655 13.6575 38.6655 13.7369V18.4212C38.6655 18.6594 38.7052 18.7784 38.7846 18.8578C38.864 18.9372 39.0228 18.9769 39.261 18.9769V19.096H37.3952V19.0166Z" fill="white"/>
<path d="M40.6487 15.4032H41.4426V15.6811H40.6487V17.9041C40.6487 18.1026 40.6487 18.2614 40.6884 18.3408C40.7677 18.5393 40.8868 18.6187 41.0456 18.6187C41.125 18.6187 41.2044 18.579 41.2838 18.5393C41.3632 18.4996 41.4426 18.4202 41.522 18.3408L41.6411 18.4202L41.5617 18.5393C41.4426 18.7378 41.2838 18.8569 41.125 18.9362C40.9662 19.0156 40.8471 19.0553 40.6884 19.0553C40.3708 19.0553 40.1723 18.9362 40.0532 18.6584C40.0135 18.4996 39.9738 18.3011 39.9738 18.0629V15.7208H39.5768C39.5768 15.7208 39.5371 15.7208 39.5371 15.6811C39.5371 15.6811 39.5371 15.6811 39.5371 15.6414C39.5371 15.6017 39.5371 15.6017 39.5371 15.562C39.5371 15.562 39.5768 15.5223 39.6562 15.4429C39.8547 15.2841 39.9738 15.165 40.0532 15.0856C40.1326 15.0062 40.3311 14.768 40.609 14.3711C40.6487 14.3711 40.6487 14.3711 40.6884 14.3711V14.4108L40.6487 15.4032Z" fill="white"/>
<path d="M41.7988 19.014V18.8949C41.9973 18.8552 42.1561 18.8155 42.2355 18.7361C42.3149 18.6567 42.3149 18.4979 42.3149 18.1803V14.4488C42.3149 14.29 42.3149 14.2106 42.2752 14.1312C42.2355 14.0518 42.1561 14.0121 41.9973 14.0121C41.9576 14.0121 41.9576 14.0121 41.9179 14.0121C41.8782 14.0121 41.8782 14.0121 41.8385 14.0121V13.8534C41.9576 13.8137 42.0767 13.774 42.2752 13.7343C42.434 13.6946 42.5531 13.6549 42.6325 13.6152L42.9898 13.4961V13.5358V15.9176C43.1486 15.7191 43.3073 15.6 43.4264 15.5206C43.6646 15.3618 43.9028 15.2825 44.1807 15.2825C44.6174 15.2825 44.8953 15.4412 45.0541 15.7985C45.1335 15.997 45.1732 16.2352 45.1732 16.5528V18.1406C45.1732 18.4185 45.2129 18.5773 45.2525 18.6964C45.3319 18.7758 45.451 18.8155 45.6495 18.8552V18.9743H43.9822V18.8949C44.2204 18.8552 44.3395 18.8155 44.4189 18.7361C44.4983 18.6567 44.4983 18.4979 44.4983 18.1803V16.5925C44.4983 16.3543 44.4586 16.1558 44.3792 15.997C44.2998 15.8382 44.141 15.7588 43.9028 15.7588C43.7043 15.7588 43.5058 15.8382 43.3074 15.9573C43.1089 16.1161 43.0295 16.1955 43.0295 16.2352V18.1406C43.0295 18.4185 43.0692 18.617 43.1486 18.6964C43.228 18.7758 43.347 18.8155 43.5852 18.8552V18.9743H41.7988V19.014Z" fill="white"/>
<path d="M46.565 18.3018C46.565 17.9048 46.8429 17.6269 47.2398 17.6269C47.5971 17.6269 47.875 17.9048 47.875 18.3018C47.875 18.6988 47.5971 18.9766 47.2398 18.9766C46.8429 18.9766 46.565 18.6591 46.565 18.3018ZM47.2398 19.0957C47.6765 19.0957 48.0735 18.7384 48.0735 18.3018C48.0735 17.8254 47.7162 17.5078 47.2398 17.5078C46.8032 17.5078 46.4062 17.8651 46.4062 18.3018C46.4062 18.7384 46.7635 19.0957 47.2398 19.0957ZM47.0413 18.3415H47.2001L47.4383 18.7384H47.5971L47.3192 18.3415C47.4383 18.3415 47.5574 18.2621 47.5574 18.1033C47.5574 17.9048 47.4383 17.8254 47.2398 17.8254H46.8826V18.7384H47.0413V18.3415ZM47.0413 18.2224V17.9445H47.2398C47.3192 17.9445 47.4383 17.9842 47.4383 18.0636C47.4383 18.2224 47.3192 18.2224 47.2001 18.2224H47.0413Z" fill="white"/>
<path d="M31.5968 5.79726H31.2395C31.0013 4.44756 29.7706 3.9712 28.54 3.9712C27.1903 3.9712 25.8406 4.96362 25.8406 6.74997C25.8406 8.49667 26.9521 10.0846 28.7385 10.0846C29.4928 10.0846 30.6837 9.68757 31.5968 8.41727V9.52877C30.5249 10.2434 29.5325 10.4816 28.4209 10.4816C24.8481 10.4816 24.332 7.98057 24.332 6.94847C24.332 5.43999 25.523 3.57422 28.6988 3.57422C29.334 3.57422 30.6043 3.73301 31.5571 4.09029V5.79726H31.5968Z" fill="white"/>
<path d="M32.3145 9.84534C32.91 9.84534 33.0688 9.64684 33.0688 9.17044V5.04195C33.0688 4.56558 32.91 4.3671 32.3145 4.3671V4.12891H35.014V4.3671C34.4185 4.3671 34.2597 4.56558 34.2597 5.04195V6.74894H37.7531V5.04195C37.7531 4.56558 37.5943 4.3671 36.9989 4.3671V4.12891H39.6983V4.3671C39.1028 4.3671 38.9441 4.56558 38.9441 5.04195V9.17044C38.9441 9.64684 39.1028 9.84534 39.6983 9.84534V10.0834H36.9989V9.84534C37.5943 9.84534 37.7531 9.64684 37.7531 9.17044V7.10624H34.2597V9.17044C34.2597 9.64684 34.4185 9.84534 35.014 9.84534V10.0834H32.3145V9.84534Z" fill="white"/>
<path d="M49.1463 4.3671V4.12891H46.4468V4.3671C47.0423 4.3671 47.2011 4.56558 47.2011 5.04195V9.17044C47.1614 9.52774 46.9232 9.76594 46.6056 9.80564C46.1689 9.72624 45.6529 9.36894 45.1765 8.69404L44.184 7.14594C45.0971 6.90774 45.4941 6.23284 45.4941 5.6771C45.4941 4.84346 44.978 4.12891 43.3504 4.12891C42.7549 4.12891 40.8097 4.12891 40.373 4.12891V4.3671C40.9685 4.3671 41.1273 4.56558 41.1273 5.04195V9.17044C41.1273 9.64684 40.9685 9.84534 40.373 9.84534V10.0834H43.0725V9.84534C42.477 9.84534 42.3182 9.64684 42.3182 9.17044V7.30464C42.9534 7.30464 43.0725 7.26494 43.4695 8.01924L43.8268 8.73374C44.3428 9.72624 44.8589 10.1231 46.0895 10.1231C46.1292 10.1231 46.2483 10.1231 46.4468 10.1231C47.4393 10.1231 49.1463 10.1231 49.1463 10.1231V9.88504C48.5508 9.88504 48.392 9.68654 48.392 9.21014V5.08165C48.392 4.56558 48.5508 4.3671 49.1463 4.3671ZM42.9137 7.06654C42.7152 7.06654 42.477 7.02684 42.3182 7.02684V4.40679C42.4373 4.3671 42.5564 4.3671 42.7152 4.3671C43.9062 4.3671 44.2634 5.28013 44.2634 5.91529C44.2634 6.70924 43.7474 7.06654 42.9137 7.06654Z" fill="white"/>
<path d="M64.4702 4.13017V4.36836C65.1054 4.36836 65.2245 4.60654 65.2245 5.08291L65.2642 6.31352C65.2642 6.67082 65.2642 7.02802 65.2642 7.50442C65.2642 8.97322 64.7084 9.92592 63.1999 9.92592C62.2074 9.92592 61.3738 9.25112 61.3738 7.98082V5.08291C61.3738 4.60654 61.5326 4.40805 62.0883 4.40805V4.16987H53.9106C53.4342 4.09048 52.9181 4.05078 52.5211 4.05078C50.4568 4.05078 50.179 5.36079 50.179 5.79745C50.179 7.66322 53.5533 7.58382 53.5533 8.93352C53.5533 9.40992 53.1166 9.92592 52.2035 9.92592C51.5684 9.92592 50.6553 9.48932 50.4171 8.49682H50.0996V9.96562C50.7744 10.1244 51.5684 10.2435 52.1638 10.2435C53.7121 10.2435 54.506 9.44962 54.506 8.45712C54.506 6.59142 51.0523 6.47232 51.0523 5.24169C51.0523 4.80503 51.489 4.28896 52.2432 4.32866C54.0296 4.44775 53.9106 5.75776 53.9106 5.75776H54.2678C54.2678 5.75776 54.0296 4.56684 55.5382 4.52715H56.61V9.17172C56.61 9.64812 56.4512 9.84652 55.8558 9.84652V10.0847H58.5552V9.84652C57.9597 9.84652 57.8009 9.64812 57.8009 9.17172V4.52715H59.0316C59.7064 4.52715 60.1828 4.68593 60.3019 5.55927V7.74262C60.3019 9.52902 61.5326 10.2038 63.1999 10.2038C65.1451 10.2038 65.6611 8.97322 65.7008 7.74262L65.7405 5.04321C65.7405 4.56684 65.8993 4.36836 66.4551 4.36836V4.13017H64.4702Z" fill="white"/>
<path d="M66.7715 8.49682H67.0891C67.3273 9.48932 68.2403 9.92592 68.8755 9.92592C69.7886 9.92592 70.2252 9.40992 70.2252 8.93352C70.2252 7.58382 66.8509 7.66322 66.8509 5.79746C66.8509 5.36079 67.1288 4.05078 69.1931 4.05078C69.7092 4.05078 70.4237 4.09048 70.9398 4.28896V5.79746H70.6222C70.5031 4.92412 69.9076 4.40805 68.9152 4.40805C68.1609 4.40805 67.7243 4.84472 67.7243 5.32109C67.7243 6.55172 71.178 6.67082 71.178 8.53652C71.178 9.52902 70.384 10.3229 68.8358 10.3229C68.2403 10.3229 67.4464 10.2038 66.7715 10.045V8.49682Z" fill="white"/>
<path d="M4.40583 9.80574C7.62136 9.80574 10.559 8.49564 12.7027 6.35204V1.19141H5.43797V6.59024H0.0390625V8.97204C1.38879 9.48814 2.85761 9.80574 4.40583 9.80574Z" fill="white"/>
<path d="M12.6637 6.58984C11.1154 10.4007 7.6617 12.8619 3.37433 12.8619C2.18339 12.8619 1.03215 12.6635 0 12.2665V13.775H5.43862V19.1738H12.6637V13.775H18.0626V6.58984H12.6637Z" fill="white"/>
<path d="M12.466 6.58954C11.3941 6.11314 10.2429 5.875 9.05196 5.875C7.78163 5.875 6.55099 6.15284 5.43945 6.62924V9.80504C8.13891 9.52714 10.6002 8.37594 12.466 6.58954Z" fill="white"/>
<path d="M12.625 6.66797C12.2281 7.58097 11.7517 8.45437 11.1562 9.16887C14.0938 9.56587 16.5948 11.3126 18.0239 13.7738C17.7857 10.9553 15.6024 8.05737 12.625 6.66797Z" fill="white"/>
<path d="M0.0390625 13.8164C1.50788 16.8333 4.68371 17.9052 8.13743 17.9052C9.76504 17.9052 11.353 17.5479 12.663 16.873V20.287C11.4721 20.7634 10.1223 21.0015 8.7329 21.0015C3.73096 21.0412 0.475733 17.9846 0.0390625 13.8164Z" fill="white"/>
<path d="M12.6621 6.6294C14.6073 4.48578 17.3067 3.13608 20.2841 3.13608C21.7132 3.13608 23.0629 3.45365 24.3332 4.00941V0.59546C23.3805 0.19849 22.3086 0 21.2368 0C17.3861 0 14.0515 2.65971 12.7018 6.3912L12.6621 6.6294Z" fill="white"/>
</svg>
