<svg width="69" height="15" viewBox="0 0 69 15" fill="none" xmlns="http://www.w3.org/2000/svg">
<path d="M15.815 0.0273439L13.7227 0.0309936C13.6741 0.0310736 13.6348 0.0705532 13.6348 0.119173L13.6591 14.0135C13.6592 14.0621 13.6987 14.1015 13.7473 14.1014L15.8395 14.0978C15.8882 14.0977 15.9275 14.0582 15.9274 14.0096L15.9032 0.115214C15.9031 0.0665936 15.8636 0.0272539 15.815 0.0273439Z" fill="white"/>
<path d="M66.1078 5.7183L65.8844 0.216732C65.8776 0.070022 65.9476 -0.00220857 66.0943 5.14254e-05L68.1324 0.0609922C68.243 0.0655122 68.2949 0.123062 68.2882 0.233652C68.0308 4.7929 68.0252 9.3532 68.2712 13.9147C68.2727 13.9444 68.2672 13.9741 68.2551 14.0013C68.243 14.0285 68.2247 14.0524 68.2016 14.0712C68.1785 14.09 68.1513 14.1031 68.1223 14.1094C68.0932 14.1158 68.063 14.1152 68.0342 14.1077C67.4655 13.9678 66.9012 13.9915 66.3415 14.1788C66.314 14.1879 66.2849 14.1904 66.2563 14.186C66.2278 14.1817 66.2007 14.1706 66.1772 14.1538C66.1538 14.1369 66.1347 14.1148 66.1214 14.0891C66.1082 14.0634 66.1012 14.035 66.1011 14.0061V13.3256C66.1011 13.0864 66.0142 13.0491 65.8404 13.2139C64.8292 14.1777 63.7188 14.5523 62.509 14.3379C56.2254 13.2241 59.2622 1.29672 65.881 5.8435C66.0413 5.9541 66.1169 5.9124 66.1078 5.7183ZM63.7488 13.3222C64.0573 13.3239 64.3634 13.2281 64.6494 13.0403C64.9355 12.8526 65.1959 12.5767 65.4159 12.2282C65.636 11.8798 65.8112 11.4656 65.9316 11.0095C66.0521 10.5533 66.1154 10.0641 66.118 9.5697C66.1206 9.0753 66.0624 8.5854 65.9467 8.128C65.831 7.6707 65.6601 7.2547 65.4437 6.904C65.2274 6.5533 64.9698 6.2746 64.6857 6.084C64.4016 5.8933 64.0966 5.7943 63.7881 5.7928C63.4795 5.7911 63.1735 5.8869 62.8874 6.0747C62.6014 6.2624 62.3409 6.5383 62.1209 6.8868C61.9009 7.2352 61.7257 7.6494 61.6052 8.1055C61.4847 8.5617 61.4214 9.0509 61.4188 9.5453C61.4163 10.0397 61.4745 10.5296 61.5902 10.987C61.7059 11.4443 61.8768 11.8603 62.0931 12.211C62.3095 12.5617 62.5671 12.8404 62.8511 13.031C63.1352 13.2217 63.4402 13.3207 63.7488 13.3222Z" fill="white"/>
<path d="M6.82449 0.9124L12.3294 13.9062C12.3367 13.9226 12.3398 13.9406 12.3384 13.9586C12.3371 13.9765 12.3312 13.9938 12.3215 14.0089C12.3117 14.024 12.2984 14.0365 12.2826 14.0451C12.2669 14.0538 12.2492 14.0584 12.2312 14.0586L9.60065 14.1127C9.57848 14.1127 9.55686 14.1059 9.53869 14.0931C9.52053 14.0804 9.5067 14.0625 9.49908 14.0416L7.91464 10.0128C7.90647 9.99259 7.89242 9.97539 7.8743 9.96329C7.85618 9.95119 7.83485 9.94489 7.81307 9.94509H3.22563C3.20346 9.94509 3.18183 9.95199 3.16367 9.96469C3.14551 9.97739 3.13169 9.99539 3.12406 10.0162L1.67843 14.0044C1.67062 14.0258 1.65627 14.0441 1.63744 14.0569C1.6186 14.0697 1.59622 14.0762 1.57348 14.0755L0.107525 14.0552C0.089543 14.055 0.0718778 14.0504 0.0561216 14.0418C0.0403653 14.0331 0.0270123 14.0206 0.0172709 14.0055C0.00752955 13.9904 0.00170547 13.9731 0.000321414 13.9552C-0.00106265 13.9372 0.00203769 13.9193 0.00934377 13.9028L5.70386 0.888701C5.71276 0.868601 5.72757 0.85168 5.74632 0.84019C5.76506 0.8287 5.78686 0.82318 5.80882 0.82438L6.72631 0.84469C6.7475 0.84514 6.7681 0.85179 6.78555 0.86382C6.803 0.87586 6.81654 0.89275 6.82449 0.9124ZM3.6793 8.67209C3.67266 8.68789 3.66999 8.70509 3.67153 8.72219C3.67306 8.73919 3.67876 8.75569 3.68811 8.76999C3.69746 8.78439 3.71019 8.79629 3.72517 8.80459C3.74016 8.81289 3.75696 8.81739 3.77409 8.81769L7.19013 8.87189C7.20741 8.87239 7.22457 8.86869 7.24007 8.86109C7.25557 8.85339 7.26895 8.84209 7.279 8.82799C7.28905 8.81389 7.29547 8.79759 7.29768 8.78039C7.2999 8.76329 7.29784 8.74579 7.2917 8.72969L5.6497 4.41309C5.64195 4.39399 5.62878 4.37769 5.61182 4.36609C5.59487 4.35449 5.57488 4.34809 5.55433 4.34769C5.53377 4.34729 5.51356 4.35299 5.49621 4.36409C5.47886 4.37509 5.46513 4.39089 5.45672 4.40969L3.6793 8.67209Z" fill="white"/>
<path d="M40.7026 10.5928C40.7201 10.6254 40.746 10.6528 40.7777 10.6719C40.8094 10.6911 40.8457 10.7014 40.8827 10.7018C40.9198 10.7021 40.9562 10.6925 40.9882 10.6739C41.0203 10.6553 41.0467 10.6285 41.0648 10.5961C42.8028 7.58531 44.4324 4.55181 45.9536 1.49576C46.0191 1.36034 46.0901 1.25313 46.1669 1.17413C46.2955 1.04096 46.4061 0.972132 46.4987 0.967612C46.6391 0.959642 46.7773 1.00902 46.8836 1.1052C46.9899 1.20138 47.0559 1.3367 47.0674 1.48222C47.4218 5.63741 47.9533 9.77011 48.662 13.8801C48.6869 14.0223 48.6271 14.0934 48.4826 14.0934H46.2685C46.1308 14.0934 46.0552 14.0257 46.0416 13.8903L45.2325 5.81911C45.2287 5.78301 45.2133 5.74901 45.1888 5.72231C45.1642 5.69551 45.1316 5.67741 45.096 5.67061C45.0603 5.66371 45.0233 5.66861 44.9906 5.68431C44.9579 5.70011 44.9311 5.72601 44.9142 5.75821L40.6247 14.0054C40.5875 14.0763 40.5318 14.1358 40.4635 14.1775C40.3953 14.2193 40.3171 14.2418 40.2373 14.2424C40.1576 14.2431 40.0793 14.2221 40.0109 14.1815C39.9426 14.1409 39.8867 14.0824 39.8494 14.0122L35.499 5.92411C35.4848 5.89771 35.4625 5.87651 35.4354 5.86391C35.4082 5.85121 35.3777 5.84761 35.3484 5.85371C35.3191 5.85981 35.2925 5.87521 35.2726 5.89771C35.2528 5.92011 35.2407 5.94841 35.2383 5.97821L34.5172 13.914C34.5036 14.0562 34.4257 14.1228 34.2836 14.1137L33.1426 14.0257C33.0117 14.0167 32.9564 13.9467 32.9767 13.8158L34.8286 1.31294C34.8396 1.22926 34.8775 1.14995 34.937 1.08611C35.2304 0.776893 35.4741 0.807362 35.6682 1.17752C37.3339 4.36221 39.0121 7.50061 40.7026 10.5928Z" fill="white"/>
<path d="M20.5862 11.9503C20.6166 12.7831 21.1279 13.335 21.9743 13.3485C22.0255 13.3485 22.0764 13.337 22.1232 13.3147C22.3918 13.1747 22.6762 13.1285 22.9764 13.1759C23.0123 13.1816 23.0463 13.1963 23.0751 13.2186C23.1039 13.2409 23.1266 13.2701 23.1411 13.3035C23.1556 13.3369 23.1614 13.3735 23.1581 13.4097C23.1548 13.446 23.1423 13.4808 23.122 13.511C22.9188 13.8067 22.5814 14.0234 22.1097 14.1611C19.0728 15.0345 18.2908 13.4162 18.3652 10.7721C18.4104 9.22377 18.4431 7.68327 18.4634 6.15077C18.4637 6.12207 18.4578 6.09367 18.4461 6.06757C18.4344 6.04137 18.4172 6.01797 18.3957 5.99907C18.3742 5.98007 18.3488 5.96597 18.3214 5.95767C18.2939 5.94947 18.265 5.94717 18.2366 5.95107L17.38 6.06617C17.3139 6.07527 17.2468 6.05907 17.1922 6.02077C17.1375 5.98247 17.0994 5.92487 17.0855 5.85967L16.9839 5.37547C16.9478 5.20617 17.0167 5.12157 17.1904 5.12157H18.2806C18.3912 5.12157 18.4476 5.06517 18.4499 4.95227L18.4939 3.04957C18.4949 3.00927 18.5063 2.96967 18.527 2.93467C18.5477 2.89977 18.5771 2.87057 18.6124 2.84987L20.4914 1.73262C20.5104 1.72121 20.5322 1.71508 20.5544 1.71485C20.5767 1.71463 20.5986 1.72032 20.6179 1.73135C20.6372 1.74238 20.6532 1.75834 20.6643 1.77761C20.6753 1.79687 20.6811 1.81873 20.681 1.84096L20.637 4.95567C20.6347 5.08207 20.6979 5.14297 20.8265 5.13847L22.3602 5.07417C22.4007 5.07217 22.4412 5.07887 22.479 5.09367C22.5169 5.10837 22.5512 5.13107 22.5799 5.16007C22.6086 5.18907 22.631 5.22377 22.6456 5.26207C22.6603 5.30037 22.6668 5.34127 22.6649 5.38227L22.6446 5.84607C22.6356 6.01537 22.5475 6.09327 22.3805 6.07967L20.8198 5.96117C20.7905 5.95887 20.761 5.96257 20.7332 5.97197C20.7054 5.98137 20.6798 5.99637 20.6579 6.01607C20.6361 6.03567 20.6185 6.05957 20.6061 6.08617C20.5938 6.11287 20.587 6.14177 20.5862 6.17107C20.5365 8.76667 20.5365 10.6931 20.5862 11.9503Z" fill="white"/>
<path d="M25.6083 6.31292C25.2495 6.52952 25.0362 6.98322 24.7078 7.28792C24.6684 7.32362 24.6189 7.34662 24.5661 7.35382C24.5133 7.36102 24.4596 7.35192 24.4124 7.32802C24.3652 7.30402 24.3266 7.26622 24.3019 7.21972C24.2773 7.17312 24.2677 7.12022 24.2744 7.06782L24.3963 6.03522C24.4099 5.90432 24.4708 5.80052 24.5791 5.72382C26.15 4.59642 29.0853 4.27472 30.3481 6.06912C31.1979 7.28112 30.795 10.792 30.7883 12.3188C30.7837 13.0501 31.12 13.3424 31.7972 13.1957C31.8573 13.1819 31.9204 13.1893 31.9757 13.2166C32.031 13.244 32.0751 13.2896 32.1006 13.3458C32.1261 13.402 32.1314 13.4653 32.1156 13.5249C32.0998 13.5846 32.0638 13.6369 32.0138 13.6731C30.7837 14.5894 29.6992 14.4777 28.7603 13.3379C28.6791 13.2363 28.5922 13.2318 28.4996 13.3244C27.3113 14.5432 24.5487 15.0036 23.8174 12.979C22.5783 9.54272 26.2516 9.26852 28.4895 8.53382C28.5843 8.50222 28.6418 8.43672 28.6621 8.33742C29.0785 6.37722 27.1759 5.37172 25.6083 6.31292ZM25.7878 11.1102C25.0836 13.409 28.2829 14.0252 28.6723 11.679C28.7197 11.3901 28.7208 10.7096 28.6757 9.63752C28.6712 9.53592 28.6192 9.49192 28.5199 9.50542C27.4636 9.66122 26.1365 9.97602 25.7878 11.1102Z" fill="white"/>
<path d="M51.7501 9.82439C51.767 13.1388 55.1018 14.361 57.343 12.1672C57.3615 12.1489 57.3849 12.1364 57.4103 12.1311C57.4357 12.1258 57.4622 12.1279 57.4864 12.1371C57.5107 12.1464 57.5318 12.1625 57.5472 12.1834C57.5626 12.2044 57.5716 12.2293 57.5732 12.2552C57.6443 13.1016 57.3024 13.5587 56.5169 13.8837C53.9981 14.9163 50.7175 14.3272 49.7424 11.5138C48.3916 7.62709 51.3201 3.58139 55.6164 5.09469C57.3566 5.70639 58.1477 7.15649 57.9897 9.44519C57.9806 9.55349 57.922 9.60769 57.8136 9.60769H51.9667C51.8223 9.60769 51.7501 9.67989 51.7501 9.82439ZM52.0209 8.70369L55.657 8.66989C55.7121 8.66899 55.7646 8.64649 55.8033 8.60719C55.8419 8.56799 55.8635 8.51509 55.8635 8.45999V8.39569C55.857 7.65689 55.6529 6.95019 55.2961 6.43089C54.9393 5.91149 54.459 5.62209 53.9608 5.62629H53.6629C53.4161 5.62829 53.1723 5.70239 52.9454 5.84439C52.7186 5.98639 52.5131 6.19349 52.3408 6.45379C52.1685 6.71409 52.0328 7.02259 51.9413 7.36159C51.8498 7.70059 51.8044 8.06349 51.8076 8.42949V8.49379C51.8076 8.52169 51.8132 8.54929 51.8239 8.57499C51.8347 8.60069 51.8504 8.62389 51.8703 8.64349C51.8901 8.66299 51.9137 8.67839 51.9395 8.68879C51.9654 8.69909 51.9931 8.70419 52.0209 8.70369Z" fill="white"/>
</svg>
