<svg width="80" height="13" viewBox="0 0 80 13" fill="none" xmlns="http://www.w3.org/2000/svg">
<path d="M24.3844 0.00390625V0.327526C24.5048 0.321216 24.6252 0.338916 24.7387 0.379606C24.8523 0.420306 24.9567 0.483186 25.0461 0.564676C25.1356 0.646156 25.2082 0.744626 25.2598 0.854446C25.3114 0.964276 25.341 1.0833 25.347 1.20465C25.3491 1.24015 25.3491 1.27565 25.347 1.31115C25.347 1.97535 23.8525 7.11065 23.8525 7.11065C23.8525 7.11065 21.8177 1.24725 21.4588 0.00390625H18.7865C18.3643 1.36225 16.2535 7.27245 16.2535 7.27245L14.5648 1.73695C14.4762 1.51345 14.4304 1.27505 14.4297 1.03437C14.4297 0.608557 14.8519 0.336036 15.4471 0.336036V0.00390625H9.25391V0.327526C9.39142 0.311046 9.53077 0.322926 9.66357 0.362456C9.79647 0.401986 9.91987 0.468326 10.0265 0.557456C10.284 0.898106 10.3051 1.74545 10.3051 3.84895V7.25545C10.3051 8.97995 10.1194 11.1813 7.62013 11.1813C4.84648 11.1813 4.9267 9.09915 4.9267 7.82175V1.54105C4.9267 0.561716 5.07868 0.323266 5.9019 0.323266V0.00390625H0V0.327526C1.03853 0.327526 0.970982 0.881076 0.970982 2.72055V8.18795C0.970982 10.4404 2.59211 12.0627 6.17209 12.0627C9.54947 12.0627 11.2381 10.5383 11.2381 7.32355V3.53815C11.2381 3.60195 11.2761 3.66585 11.2972 3.72975L13.8302 11.935H15.5189L18.5712 3.09955H18.605L21.6024 11.935H23.3712C23.3712 11.935 26.3686 1.88595 26.567 1.17062C26.6098 0.930456 26.7354 0.713276 26.9216 0.557446C27.1078 0.401616 27.3425 0.317166 27.5845 0.319006V0.00390625H24.3844Z" fill="white"/>
<path d="M35.2177 4.14307H31.9122V0H28.3828V11.9226H31.9164V7.20467H35.222V11.9354H38.7555V0H35.2177V4.14307ZM43.8511 3.04447C41.221 3.04447 39.4521 5.09687 39.4521 7.62197C39.4521 10.5132 41.4616 12.1525 44.1255 12.1525C46.021 12.1525 47.7688 11.3009 48.4105 9.41037H45.4553C45.3003 9.61467 45.0981 9.77777 44.8663 9.88537C44.6345 9.99297 44.3802 10.0419 44.1255 10.0278C43.1292 10.0278 42.5846 9.32517 42.5044 8.32447H48.6047C48.5878 4.96487 47.1609 3.04447 43.8511 3.04447ZM42.5001 6.61707C42.4981 6.60437 42.4981 6.59137 42.5001 6.57867C42.5135 6.37607 42.5666 6.17817 42.6564 5.99637C42.7462 5.81467 42.871 5.65267 43.0234 5.51997C43.1758 5.38727 43.3528 5.28637 43.5442 5.22327C43.7355 5.16017 43.9374 5.13597 44.1381 5.15227H44.1972C44.3797 5.15887 44.559 5.20167 44.7251 5.27817C44.8911 5.35477 45.0405 5.46357 45.1648 5.59847C45.2891 5.73327 45.3858 5.89157 45.4494 6.06417C45.513 6.23667 45.5423 6.42027 45.5355 6.60427L42.5001 6.61707ZM57.791 9.99367V6.42967C57.791 4.76047 57.8248 3.02327 53.8438 3.02327C52.8717 2.98007 51.9021 3.15157 51.0026 3.52567C50.5616 3.73177 50.1897 4.06307 49.9326 4.47897C49.6754 4.89497 49.544 5.37747 49.5546 5.86757H52.5097C52.5097 5.50137 52.7208 4.98197 53.7002 4.98197C54.2111 4.98197 54.743 5.19907 54.743 5.78667C54.743 6.37427 54.3208 6.46797 53.8775 6.55317C52.2522 6.86827 49.1704 6.77027 49.1704 9.50827C49.1704 11.3307 50.5044 12.1313 52.1256 12.1313C53.1556 12.1313 54.1309 11.8971 54.8063 11.0965H54.8401C54.8314 11.3736 54.87 11.6502 54.9541 11.9141H58.1963C57.8873 11.3242 57.747 10.6594 57.791 9.99367ZM53.4089 10.1981C53.1752 10.2191 52.9423 10.1493 52.7578 10.0029C52.5734 9.85637 52.4515 9.64447 52.4169 9.41037C52.4169 8.82697 52.7841 8.63957 53.4892 8.47357C53.9277 8.38707 54.3534 8.24397 54.7557 8.04777V8.96747C54.7498 9.13827 54.71 9.30617 54.6387 9.46117C54.5673 9.61617 54.4658 9.75517 54.3402 9.86997C54.2147 9.98467 54.0675 10.0729 53.9076 10.1292C53.7476 10.1856 53.578 10.209 53.4089 10.1981ZM59.0618 11.9354H62.2407V0H59.0618V11.9354ZM67.6571 0.62167H64.4782V3.26167H63.0555V5.29707H64.4697V9.44017C64.4697 11.8162 65.9642 12.0333 67.3109 12.0333C67.9864 12.0333 68.7083 11.9311 69.35 11.9311V9.41037C69.1105 9.44077 68.8695 9.45647 68.6281 9.45717C67.826 9.45717 67.6487 9.10797 67.6487 8.30327V5.27997H69.3373V3.26167H67.6487L67.6571 0.62167ZM76.2398 3.02327C75.7459 2.98697 75.2507 3.07327 74.7974 3.27437C74.3441 3.47547 73.9465 3.78547 73.6392 4.17717H73.6097V0H70.435V11.9226H73.6097V7.35367C73.6097 5.96977 74.3316 5.68447 74.8762 5.68447C75.8049 5.68447 75.9189 6.38287 75.9189 7.38777V11.9354H79.0979V6.00387C79.0979 3.99407 77.7343 3.02327 76.2398 3.02327Z" fill="white"/>
</svg>
