<svg width="48" height="48" viewBox="0 0 48 48" fill="none" xmlns="http://www.w3.org/2000/svg">
<path fill-rule="evenodd" clip-rule="evenodd" d="M33.3539 21.3533L33.7071 20.9995L32.9994 20.293L32.6462 20.6468L26.4802 26.8234L26.4749 26.8181L25.0607 28.2323C24.4772 28.8159 23.5325 28.8181 22.9462 28.2391L15.3536 20.6465L15.0001 20.293L14.293 21.0001L14.6465 21.3536L20.8181 27.5252L20.8181 27.5252L22.2323 28.9394C22.2353 28.9424 22.2382 28.9454 22.2412 28.9483L23.6543 30.3614L24.0082 30.7153L24.3617 30.3611L33.3539 21.3533Z" fill="black"/>
<path d="M33.7071 20.9995L34.061 21.3527L34.4142 20.9989L34.0604 20.6456L33.7071 20.9995ZM33.3539 21.3533L33.7078 21.7066L33.3539 21.3533ZM32.9994 20.293L33.3527 19.9391L32.9988 19.5859L32.6456 19.9397L32.9994 20.293ZM32.6462 20.6468L32.2923 20.2936V20.2936L32.6462 20.6468ZM26.4802 26.8234L26.1267 27.177L26.4806 27.5309L26.8341 27.1767L26.4802 26.8234ZM26.4749 26.8181L26.8285 26.4646L26.4749 26.111L26.1214 26.4646L26.4749 26.8181ZM22.9462 28.2391L22.5926 28.5926L22.5948 28.5948L22.9462 28.2391ZM15.3536 20.6465L15.7072 20.293L15.7072 20.293L15.3536 20.6465ZM15.0001 20.293L15.3536 19.9394L15.0001 19.5859L14.6465 19.9394L15.0001 20.293ZM14.293 21.0001L13.9394 20.6465L13.5859 21.0001L13.9394 21.3536L14.293 21.0001ZM14.6465 21.3536L15.0001 21.0001L15.0001 21.0001L14.6465 21.3536ZM20.8181 27.5252L21.1637 27.8865L21.5331 27.5331L21.1716 27.1716L20.8181 27.5252ZM20.8181 27.5252L20.4725 27.1639L20.103 27.5173L20.4645 27.8788L20.8181 27.5252ZM22.2323 28.9394L22.5859 28.5859L22.5858 28.5859L22.2323 28.9394ZM22.2412 28.9483L22.5948 28.5948L22.593 28.593L22.2412 28.9483ZM24.0082 30.7153L23.6546 31.0688L24.0085 31.4227L24.362 31.0685L24.0082 30.7153ZM24.3617 30.3611L24.7156 30.7143L24.7156 30.7143L24.3617 30.3611ZM33.3533 20.6462L33 21.0001L33.7078 21.7066L34.061 21.3527L33.3533 20.6462ZM32.6462 20.6468L33.3539 21.3533L34.0604 20.6456L33.3527 19.9391L32.6462 20.6468ZM33 21.0001L33.3533 20.6462L32.6456 19.9397L32.2923 20.2936L33 21.0001ZM26.8341 27.1767L33 21.0001L32.2923 20.2936L26.1264 26.4702L26.8341 27.1767ZM26.1214 27.1717L26.1267 27.177L26.8338 26.4699L26.8285 26.4646L26.1214 27.1717ZM25.4143 28.5859L26.8285 27.1717L26.1214 26.4646L24.7072 27.8788L25.4143 28.5859ZM22.5948 28.5948C23.3766 29.3669 24.6362 29.3639 25.4143 28.5859L24.7072 27.8788C24.3181 28.2678 23.6883 28.2693 23.2975 27.8833L22.5948 28.5948ZM15.0001 21.0001L22.5926 28.5926L23.2997 27.8855L15.7072 20.293L15.0001 21.0001ZM14.6465 20.6465L15.0001 21.0001L15.7072 20.293L15.3536 19.9394L14.6465 20.6465ZM14.6465 21.3536L15.3536 20.6465L14.6465 19.9394L13.9394 20.6465L14.6465 21.3536ZM15.0001 21.0001L14.6465 20.6465L13.9394 21.3536L14.293 21.7072L15.0001 21.0001ZM21.1716 27.1716L15.0001 21.0001L14.293 21.7072L20.4645 27.8788L21.1716 27.1716ZM21.1637 27.8865L21.1637 27.8865L20.4725 27.1639L20.4725 27.1639L21.1637 27.8865ZM22.5858 28.5859L21.1716 27.1717L20.4645 27.8788L21.8787 29.293L22.5858 28.5859ZM22.593 28.593C22.5906 28.5906 22.5882 28.5883 22.5859 28.5859L21.8787 29.2929C21.8823 29.2965 21.8859 29.3001 21.8894 29.3036L22.593 28.593ZM24.0078 30.0078L22.5948 28.5948L21.8877 29.3019L23.3007 30.715L24.0078 30.0078ZM24.3617 30.3617L24.0078 30.0078L23.3007 30.715L23.6546 31.0688L24.3617 30.3617ZM24.0078 30.0078L23.6543 30.362L24.362 31.0685L24.7156 30.7143L24.0078 30.0078ZM33 21.0001L24.0078 30.0078L24.7156 30.7143L33.7078 21.7066L33 21.0001Z" fill="black"/>
</svg>
