<svg width="71" height="13" viewBox="0 0 71 13" fill="none" xmlns="http://www.w3.org/2000/svg">
<path d="M10.7983 0C9.43728 0 8.33398 1.1033 8.33398 2.4644C8.33398 3.8253 9.43728 4.9287 10.7983 4.9287C12.1594 4.9287 13.2627 3.8253 13.2627 2.4644C13.2627 1.1033 12.1594 0 10.7983 0ZM14.0105 10.6546C12.5218 12.1434 10.4382 12.6745 8.52485 12.2481C8.09865 10.335 8.62973 8.2514 10.1185 6.7626C11.6073 5.2739 13.6908 4.7429 15.6039 5.1692C16.0302 7.0825 15.4991 9.1658 14.0105 10.6546Z" fill="white"/>
<path d="M59.6129 7.7319C59.6129 6.4205 60.3854 5.3426 61.6968 5.3426C63.0083 5.3426 63.8884 6.3306 63.8884 7.8217C63.8884 9.2948 62.9544 10.1751 61.7327 10.1751C60.4213 10.1751 59.6129 9.0972 59.6129 7.7319ZM63.8165 3.0971V4.3365C63.2419 3.4741 62.1999 2.8994 60.9783 2.8994C58.2477 2.8994 56.5049 5.0372 56.5049 7.7319C56.5049 10.4805 58.3193 12.6003 60.9963 12.6003C62.3077 12.6003 63.2239 12.0434 63.8167 11.1273V12.4028H66.9067V3.0971H63.8165ZM56.7924 3.0971H53.433L51.3131 9.0075L49.2114 3.0971H45.8519L49.876 12.4028H52.8043L56.7924 3.0971ZM38.8421 7.7499C38.8421 6.4025 39.7764 5.4325 41.1058 5.4325C42.4351 5.4325 43.3694 6.4025 43.3694 7.7499C43.3694 9.0972 42.4351 10.0493 41.1058 10.0493C39.7764 10.0493 38.8421 9.0972 38.8421 7.7499ZM46.3515 7.7499C46.3515 5.0731 44.0162 2.8994 41.1058 2.8994C38.2136 2.8994 35.86 5.0552 35.86 7.7499C35.86 10.4446 38.2135 12.6003 41.1058 12.6003C44.0162 12.6003 46.3515 10.4266 46.3515 7.7499ZM25.621 12.4028H28.7108V7.3726C28.7108 6.3127 29.0881 5.3786 30.2019 5.3786C31.3336 5.3786 31.6751 6.4744 31.6751 7.3726V12.4028H34.7651V7.1929C34.7651 5.163 34.1901 2.8994 31.4775 2.8994C30.2917 2.8994 29.3756 3.3303 28.7108 4.3185V3.0971H25.6209L25.621 12.4028ZM23.8957 0H20.7159V12.4028H23.8957V0ZM4.94792 0C3.58686 0 2.48356 1.1033 2.48356 2.4644C2.48356 3.8254 3.58686 4.9286 4.94792 4.9286C6.30898 4.9286 7.4124 3.8254 7.4124 2.4644C7.4124 1.1033 6.30898 0 4.94792 0ZM0.142451 5.1691C2.05563 4.7427 4.13909 5.2738 5.62793 6.7626C7.11665 8.2514 7.64774 10.335 7.22154 12.2481C5.30814 12.6745 3.22456 12.1435 1.73583 10.6546C0.246996 9.1659 -0.283744 7.0823 0.142451 5.1691ZM68.9823 4.8309V3.0971H69.4154L69.9285 4.3625L70.4409 3.0971H70.8747V4.8309H70.4833V3.8822L70.3992 4.1424L70.1095 4.8309H69.7476L69.4579 4.1423L69.3738 3.8822V4.8309H68.9823ZM67.3591 3.4491V3.0971H68.7857V3.4491H68.2734V4.8309H67.8722V3.4491H67.3591Z" fill="white"/>
</svg>
